<svg xmlns="http://www.w3.org/2000/svg" xmlns:xlink="http://www.w3.org/1999/xlink" xmlns:lucid="lucid" width="1142" height="1152"><g transform="translate(-463.9999996666279 -304)" lucid:page-tab-id="oGPrLqzmyA~k"><path d="M520 1165c0-2.76 2.24-5 5-5h30c2.76 0 5 2.24 5 5v30c0 2.76-2.24 5-5 5h-30c-2.76 0-5-2.24-5-5z" stroke="#834187" stroke-width="3" fill="#fff"/><use xlink:href="#a" transform="matrix(1,0,0,1,525,1165) translate(0 21.044444444444444)"/><path d="M520 925c0-2.76 2.24-5 5-5h30c2.76 0 5 2.24 5 5v30c0 2.76-2.24 5-5 5h-30c-2.76 0-5-2.24-5-5z" stroke="#0c7cba" stroke-width="3" fill="#fff"/><use xlink:href="#b" transform="matrix(1,0,0,1,525,925) translate(0 21.044444444444444)"/><path d="M520 665c0-2.76 2.24-5 5-5h30c2.76 0 5 2.24 5 5v30c0 2.76-2.24 5-5 5h-30c-2.76 0-5-2.24-5-5z" stroke="#0c7cba" stroke-width="3" fill="#fff"/><use xlink:href="#b" transform="matrix(1,0,0,1,525,665) translate(0 21.044444444444444)"/><path d="M640 585c0-2.76 2.24-5 5-5h30c2.76 0 5 2.24 5 5v30c0 2.76-2.24 5-5 5h-30c-2.76 0-5-2.24-5-5z" stroke="#0c7cba" stroke-width="3" fill="#fff"/><use xlink:href="#b" transform="matrix(1,0,0,1,645,585) translate(0 21.044444444444444)"/><path d="M960 405c0-2.76 2.24-5 5-5h30c2.76 0 5 2.24 5 5v30c0 2.76-2.24 5-5 5h-30c-2.76 0-5-2.24-5-5z" stroke="#0c7cba" stroke-width="3" fill="#fff"/><use xlink:href="#b" transform="matrix(1,0,0,1,965,405) translate(0 21.044444444444444)"/><path d="M1480 485c0-2.76 2.24-5 5-5h30c2.76 0 5 2.24 5 5v30c0 2.76-2.24 5-5 5h-30c-2.76 0-5-2.24-5-5z" stroke="#0c7cba" stroke-width="3" fill="#fff"/><use xlink:href="#b" transform="matrix(1,0,0,1,1485,485) translate(0 21.044444444444444)"/><path d="M800 485c0-2.76 2.24-5 5-5h30c2.76 0 5 2.24 5 5v30c0 2.76-2.24 5-5 5h-30c-2.76 0-5-2.24-5-5z" stroke="#0c7cba" stroke-width="3" fill="#fff"/><use xlink:href="#b" transform="matrix(1,0,0,1,805,485) translate(0 21.044444444444444)"/><path d="M1320 405c0-2.76 2.24-5 5-5h30c2.76 0 5 2.24 5 5v30c0 2.76-2.24 5-5 5h-30c-2.76 0-5-2.24-5-5z" stroke="#0c7cba" stroke-width="3" fill="#fff"/><use xlink:href="#b" transform="matrix(1,0,0,1,1325,405) translate(0 21.044444444444444)"/><path d="M1320 1365c0-2.76 2.24-5 5-5h30c2.76 0 5 2.24 5 5v30c0 2.76-2.24 5-5 5h-30c-2.76 0-5-2.24-5-5z" stroke="#834187" stroke-width="3" fill="#fff"/><use xlink:href="#a" transform="matrix(1,0,0,1,1325,1365) translate(0 21.044444444444444)"/><path d="M1480 1205c0-2.76 2.24-5 5-5h30c2.76 0 5 2.24 5 5v30c0 2.76-2.24 5-5 5h-30c-2.76 0-5-2.24-5-5z" stroke="#834187" stroke-width="3" fill="#fff"/><use xlink:href="#a" transform="matrix(1,0,0,1,1485,1205) translate(0 21.044444444444444)"/><path d="M1480 985c0-2.76 2.24-5 5-5h30c2.76 0 5 2.24 5 5v30c0 2.76-2.24 5-5 5h-30c-2.76 0-5-2.24-5-5z" stroke="#0c7cba" stroke-width="3" fill="#fff"/><use xlink:href="#b" transform="matrix(1,0,0,1,1485,985) translate(0 21.044444444444444)"/><path d="M1480 685c0-2.76 2.24-5 5-5h30c2.76 0 5 2.24 5 5v30c0 2.76-2.24 5-5 5h-30c-2.76 0-5-2.24-5-5z" stroke="#0c7cba" stroke-width="3" fill="#fff"/><use xlink:href="#b" transform="matrix(1,0,0,1,1485,685) translate(0 21.044444444444444)"/><path d="M640 1365c0-2.76 2.24-5 5-5h30c2.76 0 5 2.24 5 5v30c0 2.76-2.24 5-5 5h-30c-2.76 0-5-2.24-5-5z" stroke="#834187" stroke-width="3" fill="#fff"/><use xlink:href="#a" transform="matrix(1,0,0,1,645,1365) translate(0 21.044444444444444)"/><path d="M960 1365c0-2.76 2.24-5 5-5h30c2.76 0 5 2.24 5 5v30c0 2.76-2.24 5-5 5h-30c-2.76 0-5-2.24-5-5z" stroke="#834187" stroke-width="3" fill="#fff"/><use xlink:href="#a" transform="matrix(1,0,0,1,965,1365) translate(0 21.044444444444444)"/><path d="M680 1240c0 11.05-8.95 20-20 20s-20-8.95-20-20 8.95-20 20-20 20 8.95 20 20z" stroke="#834187" stroke-width="3" fill="#fff"/><use xlink:href="#c" transform="matrix(1,0,0,1,645,1225) translate(6.454320987654322 21.044444444444444)"/><path d="M820 1240c0 11.05-8.95 20-20 20s-20-8.95-20-20 8.95-20 20-20 20 8.95 20 20z" stroke="#834187" stroke-width="3" fill="#fff"/><use xlink:href="#c" transform="matrix(1,0,0,1,785,1225) translate(6.454320987654322 21.044444444444444)"/><path d="M960 1240c0 11.05-8.95 20-20 20s-20-8.95-20-20 8.95-20 20-20 20 8.95 20 20z" stroke="#834187" stroke-width="3" fill="#fff"/><use xlink:href="#c" transform="matrix(1,0,0,1,925,1225) translate(6.454320987654322 21.044444444444444)"/><path d="M1100 1240c0 11.05-8.95 20-20 20s-20-8.95-20-20 8.95-20 20-20 20 8.95 20 20z" stroke="#834187" stroke-width="3" fill="#fff"/><use xlink:href="#c" transform="matrix(1,0,0,1,1065,1225) translate(6.454320987654322 21.044444444444444)"/><path d="M1240 1240c0 11.05-8.95 20-20 20s-20-8.95-20-20 8.95-20 20-20 20 8.95 20 20z" stroke="#834187" stroke-width="3" fill="#fff"/><use xlink:href="#c" transform="matrix(1,0,0,1,1205,1225) translate(6.454320987654322 21.044444444444444)"/><path d="M1400 1240c0 11.05-8.95 20-20 20s-20-8.95-20-20 8.95-20 20-20 20 8.95 20 20z" stroke="#834187" stroke-width="3" fill="#fff"/><use xlink:href="#c" transform="matrix(1,0,0,1,1365,1225) translate(6.454320987654322 21.044444444444444)"/><path d="M680 960c0 11.05-8.95 20-20 20s-20-8.95-20-20 8.95-20 20-20 20 8.95 20 20z" stroke="#834187" stroke-width="3" fill="#fff"/><use xlink:href="#c" transform="matrix(1,0,0,1,645,945) translate(6.454320987654322 21.044444444444444)"/><path d="M820 960c0 11.05-8.95 20-20 20s-20-8.95-20-20 8.95-20 20-20 20 8.95 20 20z" stroke="#0c7cba" stroke-width="3" fill="#fff"/><use xlink:href="#d" transform="matrix(1,0,0,1,785,945) translate(6.454320987654322 21.044444444444444)"/><path d="M960 960c0 11.05-8.95 20-20 20s-20-8.95-20-20 8.95-20 20-20 20 8.95 20 20z" stroke="#834187" stroke-width="3" fill="#fff"/><use xlink:href="#c" transform="matrix(1,0,0,1,925,945) translate(6.454320987654322 21.044444444444444)"/><path d="M1100 960c0 11.05-8.95 20-20 20s-20-8.95-20-20 8.95-20 20-20 20 8.95 20 20z" stroke="#0c7cba" stroke-width="3" fill="#fff"/><use xlink:href="#d" transform="matrix(1,0,0,1,1065,945) translate(6.454320987654322 21.044444444444444)"/><path d="M1240 960c0 11.05-8.95 20-20 20s-20-8.95-20-20 8.95-20 20-20 20 8.95 20 20z" stroke="#834187" stroke-width="3" fill="#fff"/><use xlink:href="#c" transform="matrix(1,0,0,1,1205,945) translate(6.454320987654322 21.044444444444444)"/><path d="M1400 960c0 11.05-8.95 20-20 20s-20-8.95-20-20 8.95-20 20-20 20 8.95 20 20z" stroke="#0c7cba" stroke-width="3" fill="#fff"/><use xlink:href="#d" transform="matrix(1,0,0,1,1365,945) translate(6.454320987654322 21.044444444444444)"/><path d="M680 740c0 11.05-8.95 20-20 20s-20-8.95-20-20 8.95-20 20-20 20 8.95 20 20z" stroke="#834187" stroke-width="3" fill="#fff"/><use xlink:href="#c" transform="matrix(1,0,0,1,645,725) translate(6.454320987654322 21.044444444444444)"/><path d="M820 740c0 11.05-8.95 20-20 20s-20-8.95-20-20 8.95-20 20-20 20 8.95 20 20z" stroke="#834187" stroke-width="3" fill="#fff"/><use xlink:href="#c" transform="matrix(1,0,0,1,785,725) translate(6.454320987654322 21.044444444444444)"/><path d="M1100 740c0 11.05-8.95 20-20 20s-20-8.95-20-20 8.95-20 20-20 20 8.95 20 20z" stroke="#834187" stroke-width="3" fill="#fff"/><use xlink:href="#c" transform="matrix(1,0,0,1,1065,725) translate(6.454320987654322 21.044444444444444)"/><path d="M1240 740c0 11.05-8.95 20-20 20s-20-8.95-20-20 8.95-20 20-20 20 8.95 20 20z" stroke="#834187" stroke-width="3" fill="#fff"/><use xlink:href="#c" transform="matrix(1,0,0,1,1205,725) translate(6.454320987654322 21.044444444444444)"/><path d="M1400 740c0 11.05-8.95 20-20 20s-20-8.95-20-20 8.95-20 20-20 20 8.95 20 20z" stroke="#834187" stroke-width="3" fill="#fff"/><use xlink:href="#c" transform="matrix(1,0,0,1,1365,725) translate(6.454320987654322 21.044444444444444)"/><path d="M960 560c0 11.05-8.95 20-20 20s-20-8.95-20-20 8.95-20 20-20 20 8.95 20 20z" stroke="#834187" stroke-width="3" fill="#fff"/><use xlink:href="#c" transform="matrix(1,0,0,1,925,545) translate(6.454320987654322 21.044444444444444)"/><path d="M1100 560c0 11.05-8.95 20-20 20s-20-8.95-20-20 8.95-20 20-20 20 8.95 20 20z" stroke="#834187" stroke-width="3" fill="#fff"/><use xlink:href="#c" transform="matrix(1,0,0,1,1065,545) translate(6.454320987654322 21.044444444444444)"/><path d="M1240 560c0 11.05-8.95 20-20 20s-20-8.95-20-20 8.95-20 20-20 20 8.95 20 20z" stroke="#834187" stroke-width="3" fill="#fff"/><use xlink:href="#c" transform="matrix(1,0,0,1,1205,545) translate(6.454320987654322 21.044444444444444)"/><path d="M1400 560c0 11.05-8.95 20-20 20s-20-8.95-20-20 8.95-20 20-20 20 8.95 20 20z" stroke="#834187" stroke-width="3" fill="#fff"/><use xlink:href="#c" transform="matrix(1,0,0,1,1365,545) translate(6.454320987654322 21.044444444444444)"/><path d="M520 405c0-2.76 2.24-5 5-5h30c2.76 0 5 2.24 5 5v30c0 2.76-2.24 5-5 5h-30c-2.76 0-5-2.24-5-5zM640 405c0-2.76 2.24-5 5-5h30c2.76 0 5 2.24 5 5v30c0 2.76-2.24 5-5 5h-30c-2.76 0-5-2.24-5-5zM860 705c0-2.76 2.24-5 5-5h50c2.76 0 5 2.24 5 5v56.53c0 2.76-2.24 5-5 5h-50c-2.76 0-5-2.24-5-5z" stroke="#666" stroke-width="3" fill="#fff"/><use xlink:href="#e" transform="matrix(1,0,0,1,865,705) translate(0 33.65555555555555)"/><path d="M1158.2 645c0-2.76 2.25-5 5-5h50c2.77 0 5 2.24 5 5v56.53c0 2.76-2.23 5-5 5h-50c-2.75 0-5-2.24-5-5z" stroke="#666" stroke-width="3" fill="#fff"/><use xlink:href="#f" transform="matrix(1,0,0,1,1163.208333333313,645) translate(0 33.65555555555555)"/><path d="M1158.2 1145c0-2.76 2.25-5 5-5h50c2.77 0 5 2.24 5 5v56.53c0 2.76-2.23 5-5 5h-50c-2.75 0-5-2.24-5-5z" stroke="#666" stroke-width="3" fill="#fff"/><use xlink:href="#g" transform="matrix(1,0,0,1,1163.208333333313,1145) translate(0 33.65555555555555)"/><path d="M860 1145c0-2.76 2.24-5 5-5h50c2.76 0 5 2.24 5 5v56.53c0 2.76-2.24 5-5 5h-50c-2.76 0-5-2.24-5-5z" stroke="#666" stroke-width="3" fill="#fff"/><use xlink:href="#h" transform="matrix(1,0,0,1,865,1145) translate(0 33.65555555555555)"/><path d="M881 480h558M881.03 480H880M1438.97 480h1.03M1440 481v838M1440 481.03V480M1440 1318.97v1.03M601 1320h838M601.03 1320H600M1438.97 1320h1.03M880 481v154c0 2.76-2.24 5-5 5H605c-2.76 0-5 2.24-5 5v674M880 481.03V480M600 1318.97v1.03" stroke="#5e5e5e" stroke-width="2" fill="none"/><path d="M480 321.5V1435c0 2.76 2.24 5 5 5h1100c2.76 0 5-2.24 5-5V326c0-2.76-2.24-5-5-5H481.5M480 321.54V320M481.54 321H480" stroke="#666" stroke-width="3" fill="none"/><path d="M740 322.5v193.16c0 2.76-2.24 5-5 5H481.5M740 322.54V321M481.54 520.66H480" stroke="#666" stroke-width="3" fill="none"/><path d="M800 345c0-2.76 2.24-5 5-5h710c2.76 0 5 2.24 5 5v30c0 2.76-2.24 5-5 5H805c-2.76 0-5-2.24-5-5z" stroke="#666" stroke-width="3" fill="#fff"/><use xlink:href="#i" transform="matrix(1,0,0,1,805,345) translate(312.3938271604938 21.044444444444444)"/><path d="M1130 565c0-2.76 2.24-5 5-5h30c2.76 0 5 2.24 5 5v30c0 2.76-2.24 5-5 5h-30c-2.76 0-5-2.24-5-5z" stroke="#666" stroke-width="3" fill="#fff"/><use xlink:href="#j" transform="matrix(1,0,0,1,1135,565) translate(0 20.155555555555555)"/><path d="M1000 965c0-2.76 2.24-5 5-5h30c2.76 0 5 2.24 5 5v30c0 2.76-2.24 5-5 5h-30c-2.76 0-5-2.24-5-5z" stroke="#666" stroke-width="3" fill="#fff"/><use xlink:href="#k" transform="matrix(1,0,0,1,1005,965) translate(0 20.155555555555555)"/><path d="M520 485c0-2.76 2.24-5 5-5h190c2.76 0 5 2.24 5 5v30c0 2.76-2.24 5-5 5H525c-2.76 0-5-2.24-5-5z" stroke="#000" stroke-opacity="0" fill="#fff" fill-opacity="0"/><use xlink:href="#l" transform="matrix(1,0,0,1,525,485) translate(15.872222222222248 20.599999999999998)"/><use xlink:href="#m" transform="matrix(1,0,0,1,525,485) translate(100.81666666666668 20.599999999999998)"/><defs><path fill="#834187" d="M240-174c0 40-23 61-54 70L253 0h-59l-57-94H76V0H24v-248c93 4 217-23 216 74zM76-134c48-2 112 12 112-38 0-48-66-32-112-35v73" id="n"/><path fill="#834187" d="M23 0v-37h61v-169l-59 37v-38l62-41h46v211h57V0H23" id="o"/><g id="a"><use transform="matrix(0.06172839506172839,0,0,0.06172839506172839,0,0)" xlink:href="#n"/><use transform="matrix(0.06172839506172839,0,0,0.06172839506172839,15.987654320987653,0)" xlink:href="#o"/></g><path fill="#0c7cba" d="M240-174c0 40-23 61-54 70L253 0h-59l-57-94H76V0H24v-248c93 4 217-23 216 74zM76-134c48-2 112 12 112-38 0-48-66-32-112-35v73" id="p"/><path fill="#0c7cba" d="M182-182c0 78-84 86-111 141h115V0H12c-6-101 99-100 120-180 1-22-12-31-33-32-23 0-32 14-35 34l-49-3c5-45 32-70 84-70 51 0 83 22 83 69" id="q"/><g id="b"><use transform="matrix(0.06172839506172839,0,0,0.06172839506172839,0,0)" xlink:href="#p"/><use transform="matrix(0.06172839506172839,0,0,0.06172839506172839,15.987654320987653,0)" xlink:href="#q"/></g><path fill="#834187" d="M126-127c33 6 58 20 58 59 0 88-139 92-164 29-3-8-5-16-6-25l32-3c6 27 21 44 54 44 32 0 52-15 52-46 0-38-36-46-79-43v-28c39 1 72-4 72-42 0-27-17-43-46-43-28 0-47 15-49 41l-32-3c6-42 35-63 81-64 48-1 79 21 79 65 0 36-21 52-52 59" id="r"/><use transform="matrix(0.06172839506172839,0,0,0.06172839506172839,0,0)" xlink:href="#r" id="c"/><path fill="#0c7cba" d="M155-56V0h-30v-56H8v-25l114-167h33v167h35v25h-35zm-30-156c-27 46-58 90-88 131h88v-131" id="s"/><use transform="matrix(0.06172839506172839,0,0,0.06172839506172839,0,0)" xlink:href="#s" id="d"/><path fill="#666" d="M199 0l-22-63H83L61 0H9l90-248h61L250 0h-51zm-33-102l-36-108c-10 38-24 72-36 108h72" id="t"/><path fill="#666" d="M4 7l51-268h42L46 7H4" id="u"/><path fill="#666" d="M67-125c0 53 21 87 73 88 37 1 54-22 65-47l45 17C233-25 199 4 140 4 58 4 20-42 15-125 8-235 124-281 211-232c18 10 29 29 36 50l-46 12c-8-25-30-41-62-41-52 0-71 34-72 86" id="v"/><path fill="#666" d="M23 0v-37h61v-169l-59 37v-38l62-41h46v211h57V0H23" id="w"/><g id="e"><use transform="matrix(0.049382716049382706,0,0,0.049382716049382706,0,0)" xlink:href="#t"/><use transform="matrix(0.049382716049382706,0,0,0.049382716049382706,12.790123456790122,0)" xlink:href="#u"/><use transform="matrix(0.049382716049382706,0,0,0.049382716049382706,17.728395061728392,0)" xlink:href="#v"/><use transform="matrix(0.049382716049382706,0,0,0.049382716049382706,30.518518518518512,0)" xlink:href="#w"/></g><path fill="#666" d="M128-127c34 4 56 21 59 58 7 91-148 94-172 28-4-9-6-17-7-26l51-5c1 24 16 35 40 36 23 0 39-12 38-36-1-31-31-36-65-34v-40c32 2 59-3 59-33 0-20-13-33-34-33s-33 13-35 32l-50-3c6-44 37-68 86-68 50 0 83 20 83 66 0 35-22 52-53 58" id="x"/><g id="f"><use transform="matrix(0.049382716049382706,0,0,0.049382716049382706,0,0)" xlink:href="#t"/><use transform="matrix(0.049382716049382706,0,0,0.049382716049382706,12.790123456790122,0)" xlink:href="#u"/><use transform="matrix(0.049382716049382706,0,0,0.049382716049382706,17.728395061728392,0)" xlink:href="#v"/><use transform="matrix(0.049382716049382706,0,0,0.049382716049382706,30.518518518518512,0)" xlink:href="#x"/></g><path fill="#666" d="M165-50V0h-47v-50H5v-38l105-160h55v161h33v37h-33zm-47-37l2-116L46-87h72" id="y"/><g id="g"><use transform="matrix(0.049382716049382706,0,0,0.049382716049382706,0,0)" xlink:href="#t"/><use transform="matrix(0.049382716049382706,0,0,0.049382716049382706,12.790123456790122,0)" xlink:href="#u"/><use transform="matrix(0.049382716049382706,0,0,0.049382716049382706,17.728395061728392,0)" xlink:href="#v"/><use transform="matrix(0.049382716049382706,0,0,0.049382716049382706,30.518518518518512,0)" xlink:href="#y"/></g><path fill="#666" d="M182-182c0 78-84 86-111 141h115V0H12c-6-101 99-100 120-180 1-22-12-31-33-32-23 0-32 14-35 34l-49-3c5-45 32-70 84-70 51 0 83 22 83 69" id="z"/><g id="h"><use transform="matrix(0.049382716049382706,0,0,0.049382716049382706,0,0)" xlink:href="#t"/><use transform="matrix(0.049382716049382706,0,0,0.049382716049382706,12.790123456790122,0)" xlink:href="#u"/><use transform="matrix(0.049382716049382706,0,0,0.049382716049382706,17.728395061728392,0)" xlink:href="#v"/><use transform="matrix(0.049382716049382706,0,0,0.049382716049382706,30.518518518518512,0)" xlink:href="#z"/></g><path fill="#666" d="M169-182c-1-43-94-46-97-3 18 66 151 10 154 114 3 95-165 93-204 36-6-8-10-19-12-30l50-8c3 46 112 56 116 5-17-69-150-10-154-114-4-87 153-88 188-35 5 8 8 18 10 28" id="A"/><path fill="#666" d="M190-63c-7 42-38 67-86 67-59 0-84-38-90-98-12-110 154-137 174-36l-49 2c-2-19-15-32-35-32-30 0-35 28-38 64-6 74 65 87 74 30" id="B"/><path fill="#666" d="M135-150c-39-12-60 13-60 57V0H25l-1-190h47c2 13-1 29 3 40 6-28 27-53 61-41v41" id="C"/><path fill="#666" d="M185-48c-13 30-37 53-82 52C43 2 14-33 14-96s30-98 90-98c62 0 83 45 84 108H66c0 31 8 55 39 56 18 0 30-7 34-22zm-45-69c5-46-57-63-70-21-2 6-4 13-4 21h74" id="D"/><path fill="#666" d="M135-194c87-1 58 113 63 194h-50c-7-57 23-157-34-157-59 0-34 97-39 157H25l-1-190h47c2 12-1 28 3 38 12-26 28-41 61-42" id="E"/><g id="i"><use transform="matrix(0.06172839506172839,0,0,0.06172839506172839,0,0)" xlink:href="#A"/><use transform="matrix(0.06172839506172839,0,0,0.06172839506172839,14.814814814814813,0)" xlink:href="#B"/><use transform="matrix(0.06172839506172839,0,0,0.06172839506172839,27.160493827160494,0)" xlink:href="#C"/><use transform="matrix(0.06172839506172839,0,0,0.06172839506172839,35.80246913580247,0)" xlink:href="#D"/><use transform="matrix(0.06172839506172839,0,0,0.06172839506172839,48.148148148148145,0)" xlink:href="#D"/><use transform="matrix(0.06172839506172839,0,0,0.06172839506172839,60.49382716049382,0)" xlink:href="#E"/></g><path fill="#666" d="M76-208v77h127v40H76V0H24v-248h183v40H76" id="F"/><g id="j"><use transform="matrix(0.049382716049382706,0,0,0.049382716049382706,0,0)" xlink:href="#F"/><use transform="matrix(0.049382716049382706,0,0,0.049382716049382706,10.814814814814813,0)" xlink:href="#w"/></g><g id="k"><use transform="matrix(0.049382716049382706,0,0,0.049382716049382706,0,0)" xlink:href="#F"/><use transform="matrix(0.049382716049382706,0,0,0.049382716049382706,10.814814814814813,0)" xlink:href="#z"/></g><path fill="#666" d="M24-248c93 1 206-16 204 79-1 75-69 88-152 82V0H24v-248zm52 121c47 0 100 7 100-41 0-47-54-39-100-39v80" id="G"/><path fill="#666" d="M175 0L67-191c6 58 2 128 3 191H24v-248h59L193-55c-6-58-2-129-3-193h46V0h-61" id="H"/><path fill="#666" d="M136-208V0H84v-208H4v-40h212v40h-80" id="I"/><path fill="#666" d="M240-174c0 40-23 61-54 70L253 0h-59l-57-94H76V0H24v-248c93 4 217-23 216 74zM76-134c48-2 112 12 112-38 0-48-66-32-112-35v73" id="J"/><path fill="#666" d="M146-102V0H94v-102L6-248h54l60 105 60-105h54" id="K"/><g id="l"><use transform="matrix(0.05555555555555554,0,0,0.05555555555555554,0,0)" xlink:href="#G"/><use transform="matrix(0.05555555555555554,0,0,0.05555555555555554,11.833333333333329,0)" xlink:href="#t"/><use transform="matrix(0.05555555555555554,0,0,0.05555555555555554,26.222222222222214,0)" xlink:href="#H"/><use transform="matrix(0.05555555555555554,0,0,0.05555555555555554,40.6111111111111,0)" xlink:href="#I"/><use transform="matrix(0.05555555555555554,0,0,0.05555555555555554,52.777777777777764,0)" xlink:href="#J"/><use transform="matrix(0.05555555555555554,0,0,0.05555555555555554,66.44444444444443,0)" xlink:href="#K"/></g><path fill="#666" d="M140-251c80 0 125 45 125 126S219 4 139 4C58 4 15-44 15-125s44-126 125-126zm-1 214c52 0 73-35 73-88 0-50-21-86-72-86-52 0-73 35-73 86s22 88 72 88" id="L"/><path fill="#666" d="M230 0l2-204L168 0h-37L68-204 70 0H24v-248h70l56 185 57-185h69V0h-46" id="M"/><g id="m"><use transform="matrix(0.05555555555555554,0,0,0.05555555555555554,0,0)" xlink:href="#J"/><use transform="matrix(0.05555555555555554,0,0,0.05555555555555554,14.388888888888884,0)" xlink:href="#L"/><use transform="matrix(0.05555555555555554,0,0,0.05555555555555554,29.944444444444436,0)" xlink:href="#L"/><use transform="matrix(0.05555555555555554,0,0,0.05555555555555554,45.499999999999986,0)" xlink:href="#M"/></g></defs></g></svg>